<?xml version="1.0" encoding="UTF-8" standalone="no"?>
<!DOCTYPE svg PUBLIC "-//W3C//DTD SVG 1.1//EN" "http://www.w3.org/Graphics/SVG/1.1/DTD/svg11.dtd">
<svg width="100%" height="100%" viewBox="0 0 338 151" version="1.1" xmlns="http://www.w3.org/2000/svg" xmlns:xlink="http://www.w3.org/1999/xlink" xml:space="preserve" xmlns:serif="http://www.serif.com/" style="fill-rule:evenodd;clip-rule:evenodd;stroke-linejoin:round;stroke-miterlimit:2;">
    <g transform="matrix(1,0,0,1,-1,0)">
        <g id="Logo" transform="matrix(0.6742,0,0,0.302,1,0)">
            <rect x="0" y="0" width="500" height="500" style="fill:none;"/>
            <clipPath id="_clip1">
                <rect x="0" y="0" width="500" height="500"/>
            </clipPath>
            <g clip-path="url(#_clip1)">
                <g transform="matrix(1.48324,0,0,1.45033,-120.843,-82.9232)">
                    <g>
                        <g transform="matrix(0.485594,0,0,1.10866,21.744,-61.4516)">
                            <path d="M358.413,129.105C334.267,114.64 306.647,107 278.5,107C192.677,107 123,176.677 123,262.5C123,348.323 192.677,418 278.5,418C364.38,418 434,348.38 434,262.5L395.125,262.5C395.125,326.91 342.91,379.125 278.5,379.125C214.133,379.125 161.875,326.867 161.875,262.5C161.875,198.133 214.133,145.875 278.5,145.875C299.611,145.875 320.325,151.605 338.435,162.454L358.413,129.105Z" style="fill:rgb(55,151,213);"/>
                        </g>
                        <g id="check" transform="matrix(7.40428,0,0,16.9047,87.7797,-8.50236)">
                            <path d="M21,7L9,19L3.5,13.5L4.914,12.086L9,16.172L19.586,5.586L21,7Z" style="fill:rgb(21,100,152);"/>
                        </g>
                    </g>
                    <g transform="matrix(0.458005,0,0,1.04567,174.709,54.3281)">
                        <g transform="matrix(223.367,0,0,223.367,139,330)">
                            <path d="M0.239,-0.371C0.239,-0.343 0.244,-0.318 0.253,-0.294C0.262,-0.27 0.275,-0.249 0.292,-0.231C0.309,-0.213 0.329,-0.199 0.352,-0.189C0.375,-0.179 0.4,-0.174 0.428,-0.174C0.456,-0.174 0.481,-0.179 0.504,-0.189C0.527,-0.199 0.547,-0.213 0.564,-0.231C0.581,-0.249 0.594,-0.27 0.604,-0.294C0.613,-0.318 0.618,-0.343 0.618,-0.371C0.618,-0.398 0.613,-0.424 0.604,-0.448C0.594,-0.472 0.581,-0.494 0.564,-0.512C0.547,-0.53 0.527,-0.544 0.504,-0.554C0.481,-0.564 0.456,-0.57 0.428,-0.57C0.4,-0.57 0.375,-0.564 0.352,-0.554C0.329,-0.544 0.309,-0.53 0.292,-0.512C0.275,-0.494 0.262,-0.472 0.253,-0.448C0.244,-0.424 0.239,-0.398 0.239,-0.371ZM0.046,-0.371C0.046,-0.406 0.05,-0.44 0.06,-0.472C0.068,-0.505 0.081,-0.535 0.098,-0.564C0.115,-0.592 0.135,-0.618 0.158,-0.642C0.181,-0.665 0.207,-0.685 0.235,-0.701C0.263,-0.718 0.294,-0.731 0.326,-0.74C0.359,-0.749 0.393,-0.754 0.428,-0.754C0.463,-0.754 0.497,-0.749 0.53,-0.74C0.562,-0.731 0.593,-0.718 0.621,-0.701C0.649,-0.685 0.675,-0.665 0.699,-0.642C0.722,-0.618 0.742,-0.592 0.758,-0.564C0.775,-0.535 0.788,-0.505 0.797,-0.472C0.806,-0.44 0.81,-0.406 0.811,-0.371C0.81,-0.335 0.806,-0.301 0.797,-0.269C0.788,-0.236 0.775,-0.206 0.758,-0.178C0.742,-0.15 0.722,-0.124 0.699,-0.101C0.675,-0.078 0.649,-0.058 0.621,-0.041C0.593,-0.024 0.562,-0.012 0.53,-0.003C0.497,0.007 0.463,0.011 0.428,0.011C0.393,0.011 0.359,0.007 0.326,-0.003C0.294,-0.012 0.263,-0.024 0.235,-0.041C0.207,-0.058 0.181,-0.078 0.158,-0.101C0.135,-0.124 0.115,-0.15 0.098,-0.178C0.081,-0.206 0.068,-0.236 0.06,-0.269C0.05,-0.301 0.046,-0.335 0.046,-0.371Z" style="fill:rgb(55,151,213);fill-rule:nonzero;"/>
                        </g>
                        <g transform="matrix(223.367,0,0,223.367,329.421,330)">
                            <path d="M0.122,-0.721C0.123,-0.727 0.125,-0.732 0.129,-0.736C0.133,-0.74 0.139,-0.743 0.146,-0.743L0.319,-0.743C0.331,-0.743 0.339,-0.736 0.343,-0.724L0.479,-0.27L0.616,-0.724C0.621,-0.736 0.629,-0.743 0.642,-0.743L0.813,-0.743C0.818,-0.743 0.824,-0.74 0.829,-0.736C0.834,-0.732 0.836,-0.727 0.837,-0.721C0.849,-0.603 0.861,-0.487 0.873,-0.371C0.885,-0.256 0.897,-0.139 0.909,-0.022L0.909,-0.02C0.909,-0.007 0.901,-0 0.887,-0L0.745,-0C0.73,-0 0.722,-0.007 0.721,-0.022L0.678,-0.409L0.565,-0.02C0.564,-0.016 0.562,-0.012 0.558,-0.008C0.554,-0.003 0.55,-0.001 0.546,-0.001L0.414,-0.001C0.41,-0.001 0.406,-0.003 0.401,-0.007C0.397,-0.012 0.394,-0.016 0.394,-0.02L0.282,-0.408L0.238,-0.022C0.237,-0.007 0.229,-0 0.214,-0L0.072,-0C0.058,-0 0.051,-0.007 0.051,-0.022L0.122,-0.721Z" style="fill:rgb(55,151,213);fill-rule:nonzero;"/>
                        </g>
                    </g>
                </g>
            </g>
        </g>
    </g>
</svg>
