<?xml version="1.0" encoding="UTF-8" standalone="no"?>
<!DOCTYPE svg PUBLIC "-//W3C//DTD SVG 1.1//EN" "http://www.w3.org/Graphics/SVG/1.1/DTD/svg11.dtd">
<svg width="100%" height="100%" viewBox="0 0 132 132" version="1.1" xmlns="http://www.w3.org/2000/svg" xmlns:xlink="http://www.w3.org/1999/xlink" xml:space="preserve" xmlns:serif="http://www.serif.com/" style="fill-rule:evenodd;clip-rule:evenodd;stroke-linejoin:round;stroke-miterlimit:2;">
    <g transform="matrix(1,0,0,1,-394.1,-325)">
        <g id="Sign-in-icon" serif:id="Sign in icon" transform="matrix(1,0,0,1,394.1,157)">
            <rect x="0" y="168" width="132" height="132" style="fill:none;"/>
            <clipPath id="_clip1">
                <rect x="0" y="168" width="132" height="132"/>
            </clipPath>
            <g clip-path="url(#_clip1)">
                <g transform="matrix(0.815835,0,0,0.357336,-66.4678,151.966)">
                    <g transform="matrix(0.485594,0,0,1.10866,21.744,-61.4516)">
                        <path d="M358.413,129.105C334.267,114.64 306.647,107 278.5,107C192.677,107 123,176.677 123,262.5C123,348.323 192.677,418 278.5,418C364.38,418 434,348.38 434,262.5L395.125,262.5C395.125,326.91 342.91,379.125 278.5,379.125C214.133,379.125 161.875,326.867 161.875,262.5C161.875,198.133 214.133,145.875 278.5,145.875C299.611,145.875 320.325,151.605 338.435,162.454L358.413,129.105Z" style="fill:rgb(52,189,86);"/>
                    </g>
                    <g id="check" transform="matrix(7.40428,0,0,16.9047,87.7797,-8.50236)">
                        <path d="M21,7L9,19L3.5,13.5L4.914,12.086L9,16.172L19.586,5.586L21,7Z" style="fill:rgb(45,160,73);fill-rule:nonzero;"/>
                    </g>
                </g>
            </g>
        </g>
    </g>
</svg>
